<svg xmlns="http://www.w3.org/2000/svg" viewBox="0 0 313.1 138.3" fill="currentColor">
  <defs>
    <clipPath id="a" clipPathUnits="userSpaceOnUse">
      <path fill="#00f" fill-rule="evenodd" d="M-.8 0h315.7v215.7H-.8z"/>
    </clipPath>
  </defs>
  <path d="M164 285c5.7 0 9.8 4.2 9.8 11 0 9.3-6.4 15.2-13.5 15.2-5.6 0-9.8-4.2-9.8-11 0-9.2 6.4-15.1 13.6-15.1m-117.8.5L44 300.2q-.5 2.9.2 4.9.9 1.9 3.4 2 2.4-.1 3.8-2t1.6-4.6v-.3l2.2-14.7h4.2l-2 14.8a14 14 0 0 1-3.2 7.8q-2.6 3-7.2 3t-6.4-3q-1.7-2.7-1-7.4l.1-.4 2.2-14.8zm-19-.4c5.6 0 9.7 4.1 9.7 11 0 9.2-6.4 15-13.4 15-5.7 0-9.8-4-9.8-10.9 0-9.2 6.4-15.1 13.5-15.1m156.1.4 8 18.4.8-5.7v-.3l1.8-12.4h4.2l-3.7 25.3h-4.3L182 292l-.7 5.4-.2.8-1.8 12.5h-4.1l3.6-25.3zm-34.3 0-3.7 25.3h-4.2l3.6-25.3zm-6.7 0-.6 3.8h-6l-3 21.5h-4.3l3.1-21.5h-6l.6-3.8zm-22.5 0 5 25.3H120l-1-5.9h-8.5l-2.7 5.9h-4.4l12.2-25.4zm-25.2 0c6.2 0 10.1 3.6 10.1 10.5 0 8.6-6 14.6-13.4 14.7H84l3.6-25.2zm-26.4 0 8 18.4.7-5.4.1-.6 1.8-12.4H83l-3.7 25.3H75L67 292l-.7 5.4-.2.8-1.8 12.5h-4.1l3.6-25.3zm-54.5 0-.6 4H4.4l-1 7h8.2l-.6 4H2.8l-1.5 10.3h-4.2l3.6-25.3zm149.8 3.7c-4.6 0-8.5 4.1-8.5 10.4 0 4.6 2.4 7.4 5.9 7.4 4.6 0 8.5-4.2 8.5-10.5 0-4.5-2.4-7.3-6-7.3m-136.9 0c-4.5 0-8.4 4.1-8.4 10.4 0 4.6 2.4 7.4 5.9 7.4 4.5 0 8.4-4.2 8.4-10.5 0-4.5-2.4-7.3-5.9-7.3m67.6.2h-3l-2.5 17.3h3c5.2 0 8.6-4.6 8.6-10.2 0-4.4-2-7-6.1-7m22.7 1.5-4.7 10.2h6.4zm83.3-55.8c3.3 0 5.4 1.4 6.5 2.9l.1.2-2.4 3.4q-1.9-2.4-4.5-2.6c-2 0-3.7 1.2-3.7 3.3 0 1.5 1 2.1 2 2.6v.1l3.4 1.7q3.5 1.8 3.4 5.5c0 5.2-3.6 9-9 9a8 8 0 0 1-6.9-3.8l-.1-.2 2.5-3.4q2.3 3.2 5.3 3.3c2.3 0 3.9-1.4 3.9-3.9 0-1.5-.9-2.2-2.5-3l-3.2-1.5c-1-.5-3.1-1.7-3.1-5.3 0-4.8 4-8.3 8.3-8.3m-40.8 0c4.2 0 6.4 2 7.1 3h.1l-2 4c-.5-1-2.7-3-5.8-3-4.2 0-8.3 3.6-8.3 10.6 0 4.4 2.3 7.3 6 7.3a9 9 0 0 0 6.5-2.8l.1-.2 1 3.6c-1.5 1.5-4 3.6-8.4 3.6-5.7 0-9.7-4.3-9.7-11 0-9.1 6.3-15.2 13.4-15.2m75.1 0c3.3 0 5.4 1.4 6.5 2.9l.1.2-2.4 3.4q-2-2.4-4.5-2.6c-2 0-3.7 1.2-3.7 3.3 0 1.5 1 2.1 2 2.6v.1l3.4 1.7q3.5 1.8 3.4 5.5c0 5.2-3.6 9-9 9a8 8 0 0 1-6.9-3.8l-.1-.2 2.5-3.4q2.3 3.2 5.3 3.3c2.3 0 3.9-1.4 3.9-3.9 0-1.5-.9-2.2-2.5-3l-3.2-1.5c-1-.5-3.1-1.7-3.1-5.3 0-4.8 4-8.3 8.3-8.3m-55.3 0c5.6 0 9.7 4 9.7 11 0 9.2-6.4 15-13.5 15-5.6 0-9.8-4-9.8-11 0-9.2 6.4-15 13.6-15m-67.5 0c5.5 0 7.6 3.3 8.3 4.3l-3.2 2.9a6 6 0 0 0-5.6-3.2c-4.5 0-8.3 4-8.3 10.6 0 4.6 2.4 7.3 5.8 7.3 3.5 0 5.2-1.5 5.5-1.8l.7-4.7h-5.1l.5-3.7h9.3l-1.5 10.1c-1 .9-4.2 4.3-10 4.3-5.5 0-9.7-3.9-9.7-10.9 0-9.4 6.5-15.3 13.3-15.3m173.6.3 2.5 18 7.9-18h5.4l-1.7 25.3h-4.2l1.4-19-8.4 19.1h-3.3l-2.8-19.2h-.1l-4.2 19.1h-4.1l5.7-25.3zm-239.6 0-3.1 21.4h7.6l-.6 4H37.8l3.6-25.4zm99.6 0-.6 4h-9.3l-.9 6.2h8.8l-.6 4H134l-1 7.2h9.5l-.6 4h-13.8l3.6-25.4zm-115.1 0c4.1 0 7 2.2 7 6.3 0 4.8-2.4 7-5.6 8l-.3.2 4.3 10.8h-5l-3.5-10.3h-2l-1.4 10.3h-4.3l3.7-25.3zm-11 0-.5 4H9.4l-1 6.2h8.8l-.5 4H7.9l-1 7.2h9.5l-.5 4H2l3.6-25.4zm255.6 0-.6 4h-9.3l-.9 6.2h8.8l-.6 4h-8.8l-1 7.2h9.6l-.6 4h-13.8l3.6-25.4zm-16 0-.6 3.9h-6l-3 21.4h-4.3l3.1-21.4h-6l.6-3.9zm-191.9 0 4.9 25.3h-4.6l-1-5.8h-8.5l-2.7 5.8h-4.4l12.1-25.3Zm145.2 0 3.5 10.9 6.5-10.9h4.7l-9.7 14.9-1.5 10.4h-4.3l1.5-10.4-5.4-14.9zm-129.9 0 8 18.5.7-5.5v-.5l1.9-12.5h4.1l-3.6 25.3H89L80.8 242l-.7 5.5v.8l-1.9 12.4h-4.1l3.6-25.3zm96.4 3.8c-4.6 0-8.5 4-8.5 10.4 0 4.5 2.4 7.4 5.9 7.4 4.5 0 8.4-4.2 8.4-10.5 0-4.5-2.4-7.3-5.8-7.3M64 240.8l-4.7 10.3h6.4zm-35.1-1.6h-2.1l-1.1 7.5h2.1c3 0 5-1.3 5-4.4q-.2-3.2-4-3.1m213-62.3c1.3 0 2.4 1.2 2.4 2.7v.4l-3.2 26.6q-.4 2.1-2.5 2.3h-25.1c-1.4 0-2.5-1.2-2.5-2.7v-.3l3.2-26.6q.4-2.2 2.5-2.4zm-146.9 0c1.4 0 2.5 1.2 2.5 2.7v.4l-3.2 26.6q-.5 2.1-2.5 2.3H10.4c-1.4 0-2.5-1.2-2.5-2.7v-.3l3.2-26.6q.4-2.2 2.5-2.4zm101.6 0c1.3 0 2.5 1.2 2.5 2.7v.4l-3.3 26.6q-.3 2.1-2.5 2.3H112c-1.4 0-2.5-1.2-2.5-2.7v-.3l3.3-26.6c.1-1.4 1.2-2.4 2.4-2.4zm107.9-50.4c1.3 0 2.5 1.2 2.5 2.7v.4l-3.3 26.6q-.4 2.3-2.5 2.4h-81.4c-1.4 0-2.5-1.2-2.5-2.7v-.4l3.3-26.6c.1-1.4 1.2-2.4 2.4-2.4zm-203.1 0c1.3 0 2.5 1.2 2.5 2.7v.4l-3.3 26.6a2.5 2.5 0 0 1-2.5 2.4H16.7c-1.4 0-2.5-1.2-2.5-2.7v-.4l3.2-26.6q.5-2.3 2.5-2.4zm101.5 0c1.4 0 2.5 1.2 2.5 2.7v.4l-3.2 26.6c-.2 1.4-1.3 2.4-2.5 2.4h-81.4c-1.4 0-2.5-1.2-2.5-2.7v-.4l3.2-26.6q.4-2.3 2.5-2.4zm106.8-49.2c1.4 0 2.5 1.2 2.5 2.7v.4L309 107c-.2 1.3-1.2 2.4-2.5 2.4h-81.4c-1.4 0-2.5-1.3-2.5-2.8v-.3l3.2-26.6c.2-1.4 1.3-2.4 2.5-2.4zm-203 0c1.3 0 2.4 1.2 2.4 2.7v.4l-3 26.6c-.2 1.3-1.2 2.4-2.5 2.4H22c-1.4 0-2.5-1.3-2.5-2.8v-.3l3.2-26.6c.2-1.4 1.3-2.4 2.5-2.4zm101.5 0c1.4 0 2.5 1.2 2.5 2.7v.4l-3.2 26.6c-.2 1.3-1.3 2.4-2.5 2.4h-81.4c-1.4 0-2.5-1.3-2.5-2.8v-.3l3.2-26.6q.4-2.2 2.5-2.4z" clip-path="url(#a)" transform="translate(.8 -77.3)"/>
</svg>