<svg xmlns="http://www.w3.org/2000/svg" width="220.009" height="95.14" viewBox="0 0 220.009 95.14" fill="currentColor"><path d="M169.113 71.975c.998 0 1.807.88 1.807 1.966q0 .13-.015.257l-2.33 19.233c-.118.978-.884 1.709-1.79 1.709h-18.171c-.998 0-1.807-.88-1.807-1.966q0-.129.016-.256l2.329-19.234c.118-.978.885-1.709 1.791-1.709zm-106.128 0c.998 0 1.807.88 1.807 1.966q0 .129-.015.256L62.453 93.43c-.118.979-.884 1.71-1.791 1.71H1.807C.809 95.14 0 94.26 0 93.174q0-.128.015-.256L2.34 73.685c.118-.978.884-1.71 1.791-1.71zm73.403 0c.998 0 1.807.88 1.807 1.966q0 .129-.015.256l-2.323 19.233c-.119.979-.885 1.71-1.792 1.71H75.21c-.998 0-1.807-.88-1.807-1.966q0-.128.016-.256l2.323-19.233c.118-.978.885-1.71 1.792-1.71zm77.991-36.4c.998 0 1.807.88 1.807 1.965q0 .128-.015.256l-2.323 19.233c-.119.978-.885 1.71-1.792 1.71H153.2c-.998 0-1.807-.88-1.807-1.966q0-.129.015-.256l2.324-19.233c.118-.979.884-1.71 1.791-1.71zm-146.806 0c.998 0 1.807.88 1.807 1.965q0 .128-.015.256L67.04 57.029c-.118.978-.884 1.71-1.791 1.71H6.395c-.998 0-1.807-.88-1.807-1.966q0-.129.015-.256l2.323-19.233c.119-.979.885-1.71 1.792-1.71zm73.403 0c.998 0 1.807.88 1.807 1.965q0 .128-.015.256l-2.324 19.233c-.118.978-.884 1.71-1.791 1.71H79.798c-.998 0-1.807-.88-1.807-1.966q0-.129.015-.256l2.324-19.233c.118-.979.884-1.71 1.791-1.71zM218.202 0c.998 0 1.807.88 1.807 1.966q0 .127-.015.256l-2.323 19.233c-.119.978-.885 1.71-1.792 1.71h-58.855c-.998 0-1.807-.88-1.807-1.966q0-.129.016-.256l2.323-19.233c.118-.979.885-1.71 1.792-1.71ZM71.396 0c.998 0 1.807.88 1.807 1.966q0 .127-.015.256l-2.324 19.233c-.118.978-.884 1.71-1.791 1.71H10.218c-.998 0-1.807-.88-1.807-1.966q0-.129.015-.256L10.75 1.71C10.868.73 11.634 0 12.54 0Zm73.403 0c.998 0 1.807.88 1.807 1.966q0 .127-.015.256l-2.324 19.233c-.118.978-.884 1.71-1.791 1.71H83.62c-.998 0-1.807-.88-1.807-1.966q0-.129.015-.256L84.153 1.71C84.27.73 85.037 0 85.944 0Z"/></svg>